<?xml version="1.0" encoding="utf-8"?>
<!-- Generator: Adobe Illustrator 23.0.1, SVG Export Plug-In . SVG Version: 6.00 Build 0)  -->
<svg version="1.1" id="图层_1" xmlns="http://www.w3.org/2000/svg" xmlns:xlink="http://www.w3.org/1999/xlink" x="0px" y="0px"
	 viewBox="0 0 300 300" style="enable-background:new 0 0 300 300;" xml:space="preserve">
<style type="text/css">
	.st0{fill:#FFFFFF;}
</style>
<path class="st0" d="M145.87,192.86V300h7.06V192.92C150.58,192.9,148.23,192.88,145.87,192.86z"/>
<path class="st0" d="M179.95,31.17c7.02,3.37,13.61,7.94,19.47,13.7c14.42,14.18,21.64,32.9,21.63,51.63
	c10.77-15.38,13.99-35.34,7.72-53.77c-3.57-5.3-7.72-10.33-12.45-14.98c-21-20.65-49.06-29.76-76.28-27.38
	C156.81,4.92,171.26,16.01,179.95,31.17z"/>
<path class="st0" d="M161.49,167.76c-22.44,4.06-46.44-2.48-63.91-19.67c-2.89-2.84-5.48-5.86-7.79-9.03
	c0.35,18.75,9.5,36.79,25.42,48.02c32.29,11.81,69.59,5.83,96.75-17.83C195.69,175.43,177.45,174.94,161.49,167.76z"/>
<path class="st0" d="M224.46,156.13c22.21-28.13,26.49-65.69,12.97-97.45c0.87,17.37-5.23,34.55-17.02,47.51
	c-2.02,15.01-8.75,29.52-20.22,41.14c-8.46,8.57-18.54,14.6-29.26,18.07C188.87,170.85,208.85,167.75,224.46,156.13z"/>
<path class="st0" d="M96.05,46.43c0.25-0.26,0.51-0.53,0.76-0.79c19.93-20.2,48.82-26.25,74.11-18.06
	C159.61,12.61,141.6,3.39,122.13,3.64c-15.59,4.4-30.29,12.77-42.47,25.12C66.62,41.98,58.18,58,54.32,74.85
	C63.84,60.3,78.89,49.98,96.05,46.43z"/>
<path class="st0" d="M84.61,130.86c-13.07-24.2-11.37-54.28,5.19-76.97C72.07,60,57.73,74.23,51.94,92.78
	c-1,26.15,8.6,52.62,28.74,72.43c5.59,5.5,11.68,10.17,18.12,14.04C87.88,165.71,82.7,148.24,84.61,130.86z"/>
<path class="st0" d="M145.13,72.5c3.98-0.55,8.07-0.12,11.87,1.3c-7.46-9.57-17.82-16.92-30.01-20.6
	c-4.69,2.32-9.07,5.45-12.95,9.38c-8.97,9.09-13.59,20.82-13.9,32.64C111.64,81.83,127.96,73.81,145.13,72.5z"/>
<path class="st0" d="M134.85,50.14c16.68,6.95,29.55,20.42,35.95,36.83c1.49,3.48,2.12,7.24,1.9,10.96
	c0.01-0.13,0.02-0.25,0.03-0.38c6.81-10.02,10.63-22.1,10.39-34.79c-0.22-0.23-0.45-0.46-0.67-0.68
	C169.49,49.33,151.15,45.37,134.85,50.14z"/>
<path class="st0" d="M191.37,118.88c8.21-15.66,7.22-34.84-2.91-49.63c-1.48,17.81-10.21,34.04-23.66,45.16
	c-2.86,2.6-6.19,4.38-9.71,5.37C166.72,123.13,179.38,123.01,191.37,118.88z"/>
<path class="st0" d="M124.5,92.98c0.6-4.09,2.23-8.06,4.93-11.48c-11.38,4.14-21.54,11.7-28.78,22.11
	c1.49,10,6.12,19.62,13.89,27.27c5.23,5.15,11.34,8.86,17.83,11.14C123.31,127.18,120.68,109.49,124.5,92.98z"/>
<path class="st0" d="M140.51,144.12c15.01,2.49,30.95-2.1,42.44-13.74c1.4-1.42,2.69-2.9,3.87-4.43
	c-17.04,4.01-34.78,0.97-49.35-7.89c-2.16-1.1-4.19-2.54-6-4.32c-1.17-1.15-2.2-2.4-3.08-3.71
	C128.82,122.09,132.86,134.04,140.51,144.12z"/>
</svg>
