<?xml version="1.0" encoding="utf-8"?>
<!-- Generator: Adobe Illustrator 22.0.1, SVG Export Plug-In . SVG Version: 6.00 Build 0)  -->
<svg version="1.1" id="图层_1" xmlns="http://www.w3.org/2000/svg" xmlns:xlink="http://www.w3.org/1999/xlink" x="0px" y="0px"
	 viewBox="0 0 300 300" style="enable-background:new 0 0 300 300;" xml:space="preserve">
<path d="M145.9,192.9V300h7.1V192.9C150.6,192.9,148.2,192.9,145.9,192.9z"/>
<path d="M179.9,31.2c7,3.4,13.6,7.9,19.5,13.7c14.4,14.2,21.6,32.9,21.6,51.6c10.8-15.4,14-35.3,7.7-53.8c-3.6-5.3-7.7-10.3-12.5-15
	C195.3,7.1,167.3-2,140,0.4C156.8,4.9,171.3,16,179.9,31.2z"/>
<path d="M161.5,167.8c-22.4,4.1-46.4-2.5-63.9-19.7c-2.9-2.8-5.5-5.9-7.8-9c0.3,18.8,9.5,36.8,25.4,48c32.3,11.8,69.6,5.8,96.7-17.8
	C195.7,175.4,177.5,174.9,161.5,167.8z"/>
<path d="M224.5,156.1c22.2-28.1,26.5-65.7,13-97.5c0.9,17.4-5.2,34.6-17,47.5c-2,15-8.8,29.5-20.2,41.1
	c-8.5,8.6-18.5,14.6-29.3,18.1C188.9,170.9,208.9,167.7,224.5,156.1z"/>
<path d="M96,46.4c0.3-0.3,0.5-0.5,0.8-0.8c19.9-20.2,48.8-26.3,74.1-18.1c-11.3-15-29.3-24.2-48.8-23.9C106.5,8,91.8,16.4,79.7,28.8
	C66.6,42,58.2,58,54.3,74.8C63.8,60.3,78.9,50,96,46.4z"/>
<path d="M84.6,130.9c-13.1-24.2-11.4-54.3,5.2-77C72.1,60,57.7,74.2,51.9,92.8c-1,26.2,8.6,52.6,28.7,72.4
	c5.6,5.5,11.7,10.2,18.1,14C87.9,165.7,82.7,148.2,84.6,130.9z"/>
<path d="M145.1,72.5c4-0.6,8.1-0.1,11.9,1.3c-7.5-9.6-17.8-16.9-30-20.6c-4.7,2.3-9.1,5.4-13,9.4c-9,9.1-13.6,20.8-13.9,32.6
	C111.6,81.8,128,73.8,145.1,72.5z"/>
<path d="M134.8,50.1c16.7,6.9,29.6,20.4,36,36.8c1.5,3.5,2.1,7.2,1.9,11c0-0.1,0-0.3,0-0.4c6.8-10,10.6-22.1,10.4-34.8
	c-0.2-0.2-0.4-0.5-0.7-0.7C169.5,49.3,151.1,45.4,134.8,50.1z"/>
<path d="M191.4,118.9c8.2-15.7,7.2-34.8-2.9-49.6c-1.5,17.8-10.2,34-23.7,45.2c-2.9,2.6-6.2,4.4-9.7,5.4
	C166.7,123.1,179.4,123,191.4,118.9z"/>
<path d="M124.5,93c0.6-4.1,2.2-8.1,4.9-11.5c-11.4,4.1-21.5,11.7-28.8,22.1c1.5,10,6.1,19.6,13.9,27.3c5.2,5.1,11.3,8.9,17.8,11.1
	C123.3,127.2,120.7,109.5,124.5,93z"/>
<path d="M140.5,144.1c15,2.5,31-2.1,42.4-13.7c1.4-1.4,2.7-2.9,3.9-4.4c-17,4-34.8,1-49.3-7.9c-2.2-1.1-4.2-2.5-6-4.3
	c-1.2-1.2-2.2-2.4-3.1-3.7C128.8,122.1,132.9,134,140.5,144.1z"/>
</svg>
